nColumns=28
nRows=82
DataType=double
version=3
OpenSimVersion=4.1
endheader
time	ground_force_1_vx	ground_force_1_vy	ground_force_1_vz	ground_force_1_px	ground_force_1_py	ground_force_1_pz	ground_force_1_mx	ground_force_1_my	ground_force_1_mz	ground_force_2_vx	ground_force_2_vy	ground_force_2_vz	ground_force_2_px	ground_force_2_py	ground_force_2_pz	ground_force_2_mx	ground_force_2_my	ground_force_2_mz	ground_force_3_vx	ground_force_3_vy	ground_force_3_vz	ground_force_3_px	ground_force_3_py	ground_force_3_pz	ground_force_3_mx	ground_force_3_my	ground_force_3_mz
9.84	8.76847	517.017	-51.4363	-0.22897	0.006	-0.409621	0	-1.15674	0	-6.10832	89.687	14.6884	-0.099809	0.006	-0.922892	0	0.487271	0	0	0	0	0	0	0	0	0	0
9.85	9.50927	522.818	-53.8141	-0.229579	0.006	-0.40878	0	-0.792233	0	-4.64238	69.3595	10.9585	-0.089737	0.006	-0.923686	0	0.525431	0	0	0	0	0	0	0	0	0	0
9.86	10.1259	529.086	-56.0496	-0.230313	0.006	-0.407921	0	-0.461834	0	-3.35429	52.2721	7.99449	-0.076347	0.006	-0.924585	0	0.549131	0	0	0	0	0	0	0	0	0	0
9.87	10.6171	535.938	-58.1499	-0.231201	0.006	-0.407062	0	-0.170222	0	-2.26356	38.3608	5.72062	-0.057872	0.006	-0.925627	0	0.556922	0	0	0	0	0	0	0	0	0	0
9.88	10.9867	543.48	-60.1322	-0.232264	0.006	-0.406221	0	0.079256	0	-1.37139	27.4533	4.04603	-0.031656	0.006	-0.926867	0	0.547497	0	0	0	0	0	0	0	0	0	0
9.89	11.2436	551.788	-62.0192	-0.23351	0.006	-0.405417	0	0.284629	0	0	0	0	0	0	0	0	0	0	0	0	0	0	0	0	0	0	0
9.9	11.4026	560.89	-63.8337	-0.234935	0.006	-0.404666	0	0.445144	0	0	0	0	0	0	0	0	0	0	0	0	0	0	0	0	0	0	0
9.91	11.4832	570.746	-65.5905	-0.236522	0.006	-0.403982	0	0.561152	0	0	0	0	0	0	0	0	0	0	0	0	0	0	0	0	0	0	0
9.92	11.5069	581.248	-67.2908	-0.238245	0.006	-0.403382	0	0.634313	0	0	0	0	0	0	0	0	0	0	0	0	0	0	0	0	0	0	0
9.93	11.4936	592.219	-68.9221	-0.240075	0.006	-0.402874	0	0.667834	0	0	0	0	0	0	0	0	0	0	0	0	0	0	0	0	0	0	0
9.94	11.4621	603.435	-70.4607	-0.24198	0.006	-0.402468	0	0.666501	0	0	0	0	0	0	0	0	0	0	0	0	0	0	0	0	0	0	0
9.95	11.4301	614.645	-71.8775	-0.243932	0.006	-0.402166	0	0.636499	0	0	0	0	0	0	0	0	0	0	0	0	0	0	0	0	0	0	0
9.96	11.4151	625.583	-73.1425	-0.245905	0.006	-0.401968	0	0.584984	0	0	0	0	0	0	0	0	0	0	0	0	0	0	0	0	0	0	0
9.97	11.4338	635.985	-74.2275	-0.247879	0.006	-0.401868	0	0.519534	0	0	0	0	0	0	0	0	0	0	0	0	0	0	0	0	0	0	0
9.98	11.5011	645.586	-75.1071	-0.249838	0.006	-0.40186	0	0.447523	0	0	0	0	0	0	0	0	0	0	0	0	0	0	0	0	0	0	0
9.99	11.6303	654.12	-75.7585	-0.251771	0.006	-0.401935	0	0.375581	0	0.00975487	20.6112	1.36986	-0.009626	0.006	-0.919036	0	0.40182	0	0	0	0	0	0	0	0	0	0
10	11.8303	661.338	-76.1635	-0.253667	0.006	-0.402084	0	0.309358	0	-0.204912	23.5783	1.06543	-0.023375	0.006	-0.917243	0	0.459324	0	0	0	0	0	0	0	0	0	0
10.01	12.1019	667.035	-76.3102	-0.255516	0.006	-0.402296	0	0.253441	0	-0.452742	26.6149	0.672332	-0.034538	0.006	-0.915454	0	0.524386	0	0	0	0	0	0	0	0	0	0
10.02	12.436	671.08	-76.1958	-0.257307	0.006	-0.402559	0	0.211161	0	-0.724482	29.7456	0.217752	-0.044051	0.006	-0.913676	0	0.593778	0	0	0	0	0	0	0	0	0	0
10.03	12.8161	673.431	-75.8276	-0.25903	0.006	-0.402865	0	0.184517	0	-1.00922	33.0254	-0.25952	-0.052565	0.006	-0.911928	0	0.662955	0	0	0	0	0	0	0	0	0	0
10.04	13.221	674.128	-75.2235	-0.260669	0.006	-0.403203	0	0.174412	0	-1.29922	36.5347	-0.712212	-0.060516	0.006	-0.910243	0	0.72688	0	0	0	0	0	0	0	0	0	0
10.05	13.6286	673.282	-74.4108	-0.262211	0.006	-0.403562	0	0.180803	0	-1.58959	40.3669	-1.08942	-0.068166	0.006	-0.908654	0	0.780895	0	0	0	0	0	0	0	0	0	0
10.06	14.0207	671.056	-73.4234	-0.263642	0.006	-0.403933	0	0.202868	0	-1.87661	44.6137	-1.34136	-0.07564	0.006	-0.907188	0	0.821505	0	0	0	0	0	0	0	0	0	0
10.07	14.3858	667.64	-72.2989	-0.264948	0.006	-0.404306	0	0.239214	0	-2.15709	49.3516	-1.42297	-0.082972	0.006	-0.905862	0	0.846877	0	0	0	0	0	0	0	0	0	0
10.08	14.7189	663.231	-71.0747	-0.266118	0.006	-0.404674	0	0.287999	0	-2.42701	54.6395	-1.29601	-0.09015	0.006	-0.904682	0	0.856961	0	0	0	0	0	0	0	0	0	0
10.09	15.018	658.015	-69.784	-0.267138	0.006	-0.405027	0	0.346957	0	-2.681	60.5207	-0.928562	-0.097156	0.006	-0.903644	0	0.853078	0	0	0	0	0	0	0	0	0	0
10.1	15.2835	652.152	-68.4545	-0.267998	0.006	-0.405359	0	0.413433	0	-2.91059	67.0264	-0.29338	-0.103974	0.006	-0.902739	0	0.837293	0	0	0	0	0	0	0	0	0	0
10.11	15.5173	645.771	-67.1104	-0.268689	0.006	-0.405664	0	0.484452	0	-3.10296	74.1825	0.632904	-0.110604	0.006	-0.90195	0	0.811845	0	0	0	0	0	0	0	0	0	0
10.12	15.722	638.976	-65.7743	-0.269204	0.006	-0.405935	0	0.556665	0	-3.24302	82.0174	1.87186	-0.117068	0.006	-0.901256	0	0.778707	0	0	0	0	0	0	0	0	0	0
10.13	15.8988	631.843	-64.4681	-0.269538	0.006	-0.406166	0	0.626549	0	-3.31662	90.5652	3.44537	-0.123399	0.006	-0.900637	0	0.739161	0	0	0	0	0	0	0	0	0	0
10.14	16.0413	624.427	-63.2121	-0.269687	0.006	-0.406355	0	0.690844	0	-3.31326	99.8666	5.37599	-0.12963	0.006	-0.900075	0	0.693617	0	0	0	0	0	0	0	0	0	0
10.15	16.1309	616.767	-62.0218	-0.269649	0.006	-0.406497	0	0.746986	0	-3.22666	109.967	7.68551	-0.13578	0.006	-0.899554	0	0.6417	0	0	0	0	0	0	0	0	0	0
10.16	16.1397	608.892	-60.9047	-0.269423	0.006	-0.406589	0	0.793235	0	-3.05335	120.912	10.391	-0.141855	0.006	-0.899056	0	0.582608	0	0	0	0	0	0	0	0	0	0
10.17	16.038	600.825	-59.8608	-0.269007	0.006	-0.406631	0	0.828577	0	-2.79191	132.743	13.4994	-0.14785	0.006	-0.898558	0	0.515671	0	0	0	0	0	0	0	0	0	0
10.18	15.8004	592.593	-58.8847	-0.268402	0.006	-0.406622	0	0.852571	0	-2.44321	145.489	17.0021	-0.15375	0.006	-0.898033	0	0.440689	0	0	0	0	0	0	0	0	0	0
10.19	15.4077	584.232	-57.9687	-0.267609	0.006	-0.406564	0	0.865196	0	-2.01236	159.158	20.872	-0.159538	0.006	-0.897451	0	0.358155	0	0	0	0	0	0	0	0	0	0
10.2	14.8479	575.785	-57.1051	-0.266634	0.006	-0.406459	0	0.866682	0	-1.51132	173.732	25.0653	-0.165198	0.006	-0.896784	0	0.269128	0	0	0	0	0	0	0	0	0	0
10.21	14.1162	567.303	-56.2898	-0.265485	0.006	-0.406311	0	0.85749	0	-0.959297	189.146	29.5237	-0.170715	0.006	-0.896008	0	0.174953	0	0	0	0	0	0	0	0	0	0
10.22	13.2145	558.837	-55.5235	-0.264173	0.006	-0.406124	0	0.838349	0	-0.378959	205.282	34.1738	-0.176081	0.006	-0.895102	0	0.077462	0	0	0	0	0	0	0	0	0	0
10.23	12.1521	550.437	-54.8113	-0.262716	0.006	-0.405899	0	0.810367	0	0.208719	221.97	38.9262	-0.181291	0.006	-0.894055	0	-0.020872	0	0	0	0	0	0	0	0	0	0
10.24	10.9469	542.146	-54.1613	-0.261134	0.006	-0.40564	0	0.77498	0	0.790737	238.998	43.6792	-0.18634	0.006	-0.89286	0	-0.116923	0	0	0	0	0	0	0	0	0	0
10.25	9.62514	534	-53.5824	-0.259447	0.006	-0.40535	0	0.733838	0	1.36118	256.13	48.3271	-0.191228	0.006	-0.891521	0	-0.20717	0	0	0	0	0	0	0	0	0	0
10.26	8.22079	526.024	-53.0821	-0.25768	0.006	-0.405032	0	0.688643	0	1.91222	273.122	52.7676	-0.195948	0.006	-0.89005	0	-0.288119	0	0	0	0	0	0	0	0	0	0
10.27	6.77229	518.236	-52.6649	-0.255855	0.006	-0.404689	0	0.641012	0	2.42924	289.719	56.9064	-0.200488	0.006	-0.888467	0	-0.356684	0	0	0	0	0	0	0	0	0	0
10.28	5.31741	510.642	-52.3302	-0.253994	0.006	-0.404324	0	0.592372	0	2.893	305.662	60.6581	-0.204823	0.006	-0.886801	0	-0.410713	0	0	0	0	0	0	0	0	0	0
10.29	3.88792	503.24	-52.0715	-0.252118	0.006	-0.403943	0	0.54399	0	3.28344	320.679	63.9523	-0.208927	0.006	-0.885088	0	-0.449467	0	0	0	0	0	0	0	0	0	0
10.3	2.50688	496.027	-51.8767	-0.250246	0.006	-0.403548	0	0.496974	0	3.58399	334.491	66.7398	-0.21277	0.006	-0.883366	0	-0.473796	0	0	0	0	0	0	0	0	0	0
10.31	1.19002	489.016	-51.7294	-0.248396	0.006	-0.403146	0	0.452246	0	3.78468	346.818	68.9976	-0.216324	0.006	-0.881678	0	-0.485951	0	0	0	0	0	0	0	0	0	0
10.32	-0.0473277	482.244	-51.613	-0.246589	0.006	-0.402741	0	0.410426	0	3.8835	357.405	70.7287	-0.219572	0.006	-0.880059	0	-0.488979	0	0	0	0	0	0	0	0	0	0
10.33	-1.18162	475.779	-51.513	-0.244847	0.006	-0.402341	0	0.3717	0	3.88633	366.056	71.9588	-0.222505	0.006	-0.87854	0	-0.486029	0	0	0	0	0	0	0	0	0	0
10.34	-2.17729	469.712	-51.4207	-0.243196	0.006	-0.40195	0	0.335824	0	3.80536	372.672	72.7315	-0.225126	0.006	-0.877143	0	-0.479868	0	0	0	0	0	0	0	0	0	0
10.35	-2.99206	464.139	-51.3339	-0.241663	0.006	-0.401575	0	0.302083	0	3.65744	377.268	73.1014	-0.227444	0.006	-0.875879	0	-0.472551	0	0	0	0	0	0	0	0	0	0
10.36	-3.5896	459.146	-51.2562	-0.240271	0.006	-0.40122	0	0.269408	0	3.46242	379.975	73.1271	-0.229475	0.006	-0.874752	0	-0.465289	0	0	0	0	0	0	0	0	0	0
10.37	-3.95048	454.789	-51.193	-0.239036	0.006	-0.400889	0	0.236621	0	3.24146	381.021	72.8647	-0.231238	0.006	-0.873761	0	-0.458506	0	0	0	0	0	0	0	0	0	0
10.38	-4.07566	451.086	-51.1489	-0.237966	0.006	-0.400584	0	0.202509	0	3.01461	380.706	72.3664	-0.23275	0.006	-0.872899	0	-0.451966	0	0	0	0	0	0	0	0	0	0
10.39	-3.98525	448.023	-51.126	-0.237057	0.006	-0.400308	0	0.165955	0	2.79738	379.374	71.6828	-0.234025	0.006	-0.872156	0	-0.445116	0	0	0	0	0	0	0	0	0	0
10.4	-3.71303	445.555	-51.1215	-0.236294	0.006	-0.400061	0	0.125915	0	2.60012	377.382	70.8658	-0.235072	0.006	-0.871526	0	-0.437355	0	0	0	0	0	0	0	0	0	0
10.41	-3.29876	443.617	-51.1271	-0.235656	0.006	-0.399843	0	0.081381	0	2.4306	375.075	69.9717	-0.235898	0.006	-0.871002	0	-0.428331	0	0	0	0	0	0	0	0	0	0
10.42	-2.78297	442.128	-51.1298	-0.235116	0.006	-0.399654	0	0.031477	0	2.29599	372.773	69.0609	-0.236505	0.006	-0.870581	0	-0.418034	0	0	0	0	0	0	0	0	0	0
10.43	-2.20473	440.994	-51.1142	-0.23464	0.006	-0.399489	0	-0.024346	0	2.2019	370.75	68.1971	-0.236897	0.006	-0.87026	0	-0.406788	0	0	0	0	0	0	0	0	0	0
10.44	-1.601	440.117	-51.0657	-0.234195	0.006	-0.399345	0	-0.086195	0	2.15031	369.217	67.4426	-0.237075	0.006	-0.87004	0	-0.395249	0	0	0	0	0	0	0	0	0	0
10.45	-1.00585	439.403	-50.9737	-0.233748	0.006	-0.399217	0	-0.153678	0	2.13877	368.318	66.8509	-0.237044	0.006	-0.869919	0	-0.384366	0	0	0	0	0	0	0	0	0	0
10.46	-0.449021	438.768	-50.8341	-0.233266	0.006	-0.399098	0	-0.225947	0	2.16284	368.119	66.4586	-0.236816	0.006	-0.869896	0	-0.375142	0	0	0	0	0	0	0	0	0	0
10.47	0.0452106	438.145	-50.6504	-0.232724	0.006	-0.398984	0	-0.301751	0	2.21872	368.616	66.2807	-0.236405	0.006	-0.869963	0	-0.368389	0	0	0	0	0	0	0	0	0	0
10.48	0.458373	437.485	-50.4328	-0.232099	0.006	-0.398868	0	-0.379623	0	2.30256	369.748	66.3096	-0.235832	0.006	-0.870112	0	-0.364613	0	0	0	0	0	0	0	0	0	0
10.49	0.777158	436.755	-50.1959	-0.231374	0.006	-0.398745	0	-0.458049	0	2.40877	371.41	66.5192	-0.235117	0.006	-0.870331	0	-0.363992	0	0	0	0	0	0	0	0	0	0
10.5	0.992191	435.938	-49.9558	-0.230537	0.006	-0.39861	0	-0.535632	0	2.52863	373.468	66.8694	-0.234283	0.006	-0.870606	0	-0.366423	0	0	0	0	0	0	0	0	0	0
10.51	1.09678	435.031	-49.7285	-0.229579	0.006	-0.398459	0	-0.611119	0	2.65	375.773	67.313	-0.233351	0.006	-0.870923	0	-0.371518	0	0	0	0	0	0	0	0	0	0
10.52	1.08664	434.048	-49.5295	-0.228494	0.006	-0.398289	0	-0.683445	0	2.75917	378.171	67.8013	-0.232339	0.006	-0.871268	0	-0.378592	0	0	0	0	0	0	0	0	0	0
10.53	0.960537	433.014	-49.3723	-0.227281	0.006	-0.398095	0	-0.751669	0	2.844	380.51	68.2887	-0.231266	0.006	-0.871631	0	-0.386703	0	0	0	0	0	0	0	0	0	0
10.54	0.720482	431.973	-49.2684	-0.225946	0.006	-0.397877	0	-0.815006	0	2.89567	382.651	68.7354	-0.23015	0.006	-0.872001	0	-0.394718	0	0	0	0	0	0	0	0	0	0
10.55	0.372497	430.975	-49.2278	-0.224499	0.006	-0.397632	0	-0.873011	0	2.90927	384.472	69.1087	-0.229011	0.006	-0.872372	0	-0.401443	0	0	0	0	0	0	0	0	0	0
10.56	-0.0716385	430.079	-49.2591	-0.222962	0.006	-0.397363	0	-0.925605	0	2.88428	385.873	69.3835	-0.22787	0.006	-0.872737	0	-0.405682	0	0	0	0	0	0	0	0	0	0
10.57	-0.594103	429.342	-49.3691	-0.221358	0.006	-0.397069	0	-0.972988	0	2.8248	386.792	69.5416	-0.226753	0.006	-0.873087	0	-0.406274	0	0	0	0	0	0	0	0	0	0
10.58	-1.17237	428.821	-49.5617	-0.219713	0.006	-0.396755	0	-1.01559	0	2.73877	387.198	69.5719	-0.225687	0.006	-0.873414	0	-0.402292	0	0	0	0	0	0	0	0	0	0
10.59	-1.7814	428.568	-49.8367	-0.218052	0.006	-0.396423	0	-1.05402	0	2.63661	387.098	69.4689	-0.224701	0.006	-0.873709	0	-0.393031	0	0	0	0	0	0	0	0	0	0
10.6	-2.39596	428.63	-50.1914	-0.216399	0.006	-0.396081	0	-1.08903	0	2.53144	386.527	69.2318	-0.223827	0.006	-0.873959	0	-0.377953	0	0	0	0	0	0	0	0	0	0
10.61	-2.99402	429.049	-50.622	-0.214768	0.006	-0.395734	0	-1.12145	0	2.43866	385.545	68.8637	-0.2231	0.006	-0.874157	0	-0.356688	0	0	0	0	0	0	0	0	0	0
10.62	-3.55948	429.854	-51.1251	-0.213169	0.006	-0.395387	0	-1.15225	0	2.37434	384.228	68.371	-0.22255	0.006	-0.874292	0	-0.329159	0	0	0	0	0	0	0	0	0	0
10.63	-4.08327	431.061	-51.6967	-0.211601	0.006	-0.395045	0	-1.18279	0	2.35392	382.658	67.763	-0.22221	0.006	-0.874356	0	-0.295798	0	0	0	0	0	0	0	0	0	0
10.64	-4.56345	432.661	-52.3299	-0.210052	0.006	-0.394713	0	-1.21469	0	2.39041	380.922	67.0528	-0.222103	0.006	-0.874343	0	-0.257486	0	0	0	0	0	0	0	0	0	0
10.65	-5.00539	434.621	-53.0126	-0.2085	0.006	-0.394398	0	-1.24972	0	2.49267	379.109	66.258	-0.222249	0.006	-0.87425	0	-0.215453	0	0	0	0	0	0	0	0	0	0
